<svg xmlns="http://www.w3.org/2000/svg" width="32" height="32" enable-background="new 0 0 32 32" viewBox="0 0 32 32"><path fill="#90CAF9" d="M7,19c0,6.617,5.383,12,12,12c2.329,0,4.571-0.668,6.521-1.938l4.065,1.848C29.719,30.971,29.86,31,30,31
				c0.26,0,0.516-0.102,0.707-0.293c0.295-0.295,0.376-0.741,0.203-1.121l-1.848-4.064C30.332,23.57,31,21.328,31,19
				c0-6.617-5.383-12-12-12S7,12.383,7,19z"/><path fill="#E3F2FD" d="M13,1C6.383,1,1,6.383,1,13c0,2.328,0.668,4.57,1.938,6.521L1.09,23.586
				c-0.173,0.38-0.092,0.826,0.203,1.121C1.484,24.898,1.74,25,2,25c0.14,0,0.281-0.029,0.413-0.09l4.066-1.848
				C8.429,24.332,10.671,25,13,25c6.617,0,12-5.383,12-12S19.617,1,13,1z"/><path fill="#42A5F5" d="M2,25c-0.26,0-0.516-0.102-0.708-0.293c-0.295-0.295-0.376-0.741-0.203-1.121l1.848-4.064
					C1.668,17.57,1,15.328,1,13C1,6.383,6.383,1,13,1s12,5.383,12,12s-5.383,12-12,12c-2.329,0-4.571-0.668-6.521-1.938L2.414,24.91
					C2.281,24.971,2.14,25,2,25z M6.579,20.919c0.207,0,0.412,0.064,0.585,0.188C8.88,22.346,10.898,23,13,23
					c5.514,0,10-4.486,10-10S18.514,3,13,3S3,7.486,3,13c0,2.102,0.654,4.12,1.892,5.837c0.21,0.291,0.248,0.672,0.099,0.999
					l-0.978,2.15l2.152-0.978C6.297,20.948,6.438,20.919,6.579,20.919z"/><path fill="#42A5F5" d="M30 31c-.14 0-.28-.029-.413-.09l-4.067-1.847C23.565 30.332 21.323 31 19 31c-3.133 0-6.097-1.201-8.346-3.382-.397-.384-.407-1.018-.022-1.414.384-.396 1.018-.406 1.414-.021C13.92 27.999 16.39 29 19 29c2.096 0 4.114-.654 5.836-1.892.291-.21.67-.248.997-.099l2.154.979-.979-2.155c-.148-.325-.11-.705.098-.996C28.346 23.112 29 21.094 29 19c0-2.61-1-5.08-2.817-6.954-.385-.396-.375-1.03.021-1.414.396-.385 1.03-.375 1.414.021C29.799 12.903 31 15.867 31 19c0 2.321-.668 4.563-1.937 6.519l1.848 4.068c.172.379.091.825-.204 1.12C30.516 30.898 30.26 31 30 31zM18 17c-.256 0-.512-.098-.707-.293L14 13.414V15c0 .404-.244.77-.617.924-.375.156-.804.069-1.09-.217l-5-5c-.391-.391-.391-1.023 0-1.414s1.023-.391 1.414 0L12 12.586V11c0-.404.244-.77.617-.924.375-.156.804-.069 1.09.217l5 5c.391.391.391 1.023 0 1.414C18.512 16.902 18.256 17 18 17z"/></svg>